<?xml version="1.0" encoding="UTF-8"?>
<svg width="16px" height="16px" viewBox="0 0 16 16" version="1.1" xmlns="http://www.w3.org/2000/svg" xmlns:xlink="http://www.w3.org/1999/xlink">
    <!-- Generator: Sketch 47.1 (45422) - http://www.bohemiancoding.com/sketch -->
    <title>anchor</title>
    <desc>Created with Sketch.</desc>
    <defs></defs>
    <g id="Symbols" stroke="none" stroke-width="1" fill="none" fill-rule="evenodd">
        <g id="Icons/anchor" fill-rule="nonzero" fill="#666EE8">
            <g id="anchor">
                <path d="M11,10 L11,12 L12.9,12 C11.8,13 10.5,13.7 9,13.9 L9,5.8 C10.2,5.4 11,4.3 11,3 C11,1.3 9.7,0 8,0 C6.3,0 5,1.3 5,3 C5,4.3 5.8,5.4 7,5.8 L7,13.9 C5.5,13.7 4.2,13 3.1,12 L5,12 L5,10 L0,10 L0,15 L2,15 L2,13.7 C3.6,15.1 5.8,16 8,16 C10.2,16 12.4,15.1 14,13.7 L14,15 L16,15 L16,10 L11,10 Z M8,2 C8.6,2 9,2.4 9,3 C9,3.6 8.6,4 8,4 C7.4,4 7,3.6 7,3 C7,2.4 7.4,2 8,2 Z" id="Shape"></path>
            </g>
        </g>
    </g>
</svg>