<?xml version="1.0" encoding="UTF-8"?>
<svg width="17px" height="16px" viewBox="0 0 17 16" version="1.1" xmlns="http://www.w3.org/2000/svg" xmlns:xlink="http://www.w3.org/1999/xlink">
    <!-- Generator: Sketch 47.1 (45422) - http://www.bohemiancoding.com/sketch -->
    <title>icons/arrow</title>
    <desc>Created with Sketch.</desc>
    <defs></defs>
    <g id="Symbols" stroke="none" stroke-width="1" fill="none" fill-rule="evenodd">
        <g id="icons/arrow" transform="translate(-2.000000, 1.000000)" fill-rule="nonzero" fill="#A7ABBF">
            <g transform="translate(3.000000, 0.000000)">
                <path d="M0,8 L13,8 C13.5522847,8 14,7.55228475 14,7 C14,6.44771525 13.5522847,6 13,6 L0,6 C-0.55228475,6 -1,6.44771525 -1,7 C-1,7.55228475 -0.55228475,8 0,8 Z" id="Stroke-3"></path>
                <path d="M7.29289322,13.2928932 C6.90236893,13.6834175 6.90236893,14.3165825 7.29289322,14.7071068 C7.68341751,15.0976311 8.31658249,15.0976311 8.70710678,14.7071068 L15.7071068,7.70710678 C16.0976311,7.31658249 16.0976311,6.68341751 15.7071068,6.29289322 L8.70710678,-0.707106781 C8.31658249,-1.09763107 7.68341751,-1.09763107 7.29289322,-0.707106781 C6.90236893,-0.316582489 6.90236893,0.316582489 7.29289322,0.707106781 L13.5857864,7 L7.29289322,13.2928932 Z" id="Stroke-5"></path>
            </g>
        </g>
    </g>
</svg>