<?xml version="1.0" encoding="UTF-8"?>
<svg width="16px" height="16px" viewBox="0 0 16 16" version="1.1" xmlns="http://www.w3.org/2000/svg" xmlns:xlink="http://www.w3.org/1999/xlink">
    <!-- Generator: Sketch 47.1 (45422) - http://www.bohemiancoding.com/sketch -->
    <title>astronaut</title>
    <desc>Created with Sketch.</desc>
    <defs></defs>
    <g id="Symbols" stroke="none" stroke-width="1" fill="none" fill-rule="evenodd">
        <g id="Icons/astronaut" fill-rule="nonzero" fill="#666EE8">
            <g id="astronaut">
                <path d="M9,1.1 L9,0 L7,0 L7,1.1 C3.5,1.5 0,4 0,10.2 C0,13.7 3.1,16 8,16 C12.9,16 16,13.7 16,10.2 C16,4 12.5,1.5 9,1.1 Z M8,11.5 C7.5,11.5 3.1,11.4 3.1,8.7 C3.1,5.2 5.9,3.8 8,3.8 C10.1,3.8 12.9,5.2 12.9,8.7 C12.9,11.4 8.5,11.5 8,11.5 Z" id="Shape"></path>
            </g>
        </g>
    </g>
</svg>