<?xml version="1.0" encoding="UTF-8"?>
<svg width="14px" height="16px" viewBox="0 0 14 16" version="1.1" xmlns="http://www.w3.org/2000/svg" xmlns:xlink="http://www.w3.org/1999/xlink">
    <!-- Generator: Sketch 47.1 (45422) - http://www.bohemiancoding.com/sketch -->
    <title>axe</title>
    <desc>Created with Sketch.</desc>
    <defs></defs>
    <g id="Symbols" stroke="none" stroke-width="1" fill="none" fill-rule="evenodd">
        <g id="Icons/axe" transform="translate(-1.000000, 0.000000)">
            <g id="axe">
                <rect id="Rectangle-5" fill-opacity="1.49011614e-09" fill="#5D5D5D" x="0" y="0" width="16" height="16"></rect>
                <path d="M13.9,12.1 L10.9,9.1 L14.1,7.1 C14.3,5.2 13.5,3.6 12.1,2.2 C10.7,0.8 9.1,-0.1 7.2,0.2 L5.2,3.5 C4.2,2.6 2.9,2.6 2.1,3.5 C1.2,4.4 1.2,5.8 2.1,6.7 L2.7,7.3 L2,8.4 L5.8,12.2 L6.9,11.5 L10.7,15.3 C11.6,16.2 13,16.2 13.9,15.3 C14.8,14.4 14.8,13 13.9,12.1 Z M4.5,8.1 L8.3,2 C8.8,2.1 9.7,2.4 10.7,3.5 C11.7,4.5 12.1,5.4 12.2,5.9 L6.1,9.7 L4.5,8.1 Z" id="Shape" fill="#666EE8" fill-rule="nonzero"></path>
            </g>
        </g>
    </g>
</svg>