<?xml version="1.0" encoding="UTF-8"?>
<svg width="16px" height="16px" viewBox="0 0 16 16" version="1.1" xmlns="http://www.w3.org/2000/svg" xmlns:xlink="http://www.w3.org/1999/xlink">
    <!-- Generator: Sketch 47.1 (45422) - http://www.bohemiancoding.com/sketch -->
    <title>backpack-2</title>
    <desc>Created with Sketch.</desc>
    <defs></defs>
    <g id="Symbols" stroke="none" stroke-width="1" fill="none" fill-rule="evenodd">
        <g id="Icons/backpack-2" fill-rule="nonzero" fill="#666EE8">
            <g id="backpack-2">
                <path d="M14,9 L14,6 C14,4.3 12.7,3 11,3 L11,1 C11,0.4 10.6,0 10,0 L6,0 C5.4,0 5,0.4 5,1 L5,3 C3.3,3 2,4.3 2,6 L2,9 L0,9 L0,16 L16,16 L16,9 L14,9 Z M7,2 L9,2 L9,3 L7,3 L7,2 Z M4,6 C4,5.4 4.4,5 5,5 L11,5 C11.6,5 12,5.4 12,6 L12,9 L9,9 L9,8 L7,8 L7,9 L4,9 L4,6 Z M4,14 L4,11 L7,11 L7,12 L9,12 L9,11 L12,11 L12,14 L4,14 Z" id="Shape"></path>
            </g>
        </g>
    </g>
</svg>