<?xml version="1.0" encoding="UTF-8"?>
<svg width="14px" height="16px" viewBox="0 0 14 16" version="1.1" xmlns="http://www.w3.org/2000/svg" xmlns:xlink="http://www.w3.org/1999/xlink">
    <!-- Generator: Sketch 47.1 (45422) - http://www.bohemiancoding.com/sketch -->
    <title>backpack</title>
    <desc>Created with Sketch.</desc>
    <defs></defs>
    <g id="Symbols" stroke="none" stroke-width="1" fill="none" fill-rule="evenodd">
        <g id="Icons/backpack" transform="translate(-1.000000, 0.000000)">
            <g id="backpack">
                <rect id="Rectangle-5" fill-opacity="1.49011614e-09" fill="#5D5D5D" x="0" y="0" width="16" height="16"></rect>
                <path d="M11.4,11 L4.6,11 C2.6,11 1,12.6 1,14.6 L1,15 C1,15.6 1.4,16 2,16 L14,16 C14.6,16 15,15.6 15,15 L15,14.6 C15,12.6 13.4,11 11.4,11 Z" id="Shape" fill="#85BAFF" fill-rule="nonzero"></path>
                <path d="M4.6,9 L11.4,9 C12.8,9 14,9.5 15,10.3 L15,8 C15,5.6 13.3,3.6 11,3.1 L11,1 C11,0.4 10.6,0 10,0 L6,0 C5.4,0 5,0.4 5,1 L5,3.1 C2.7,3.6 1,5.6 1,8 L1,10.3 C2,9.5 3.2,9 4.6,9 Z M7,2 L9,2 L9,3 L7,3 L7,2 Z" id="Shape" fill="#666EE8" fill-rule="nonzero"></path>
            </g>
        </g>
    </g>
</svg>