<?xml version="1.0" encoding="UTF-8"?>
<svg width="32px" height="32px" viewBox="0 0 32 32" version="1.1" xmlns="http://www.w3.org/2000/svg" xmlns:xlink="http://www.w3.org/1999/xlink">
    <!-- Generator: Sketch 47.1 (45422) - http://www.bohemiancoding.com/sketch -->
    <title>status-failed</title>
    <desc>Created with Sketch.</desc>
    <defs></defs>
    <g id="Symbols" stroke="none" stroke-width="1" fill="none" fill-rule="evenodd">
        <g id="row/cell-status/failed" transform="translate(-30.000000, -24.000000)">
            <g id="status-failed" transform="translate(24.000000, 18.000000)">
                <circle id="Oval-2" fill="#FEF3F4" cx="22" cy="22" r="12"></circle>
                <g id="progress" stroke="#F9697C" stroke-width="2">
                    <path d="M37,22 C37,30.2845 30.2845,37 22,37 C13.7155,37 7,30.2845 7,22 C7,13.7155 13.7155,7 22,7 C27.9385,7 33.07,10.45 35.5015,15.4555" id="Shape" transform="translate(22.000000, 22.000000) rotate(-131.000000) translate(-22.000000, -22.000000) "></path>
                    <g id="Group" transform="translate(22.000000, 22.000000) rotate(-45.000000) translate(-22.000000, -22.000000) translate(15.000000, 15.000000)" stroke-linecap="square">
                        <polyline id="Shape" points="7 0.4375 7 7 0.4375 7"></polyline>
                        <polyline id="Shape" transform="translate(10.281250, 10.281250) rotate(-180.000000) translate(-10.281250, -10.281250) " points="13.5625 7 13.5625 13.5625 7 13.5625"></polyline>
                    </g>
                </g>
            </g>
        </g>
    </g>
</svg>